<svg width="128" height="128" viewBox="0 0 512 512" xmlns="http://www.w3.org/2000/svg">
  <defs>
    <linearGradient id="bitcoinGradient1" x1="0%" y1="0%" x2="100%" y2="100%">
      <stop offset="0%" stop-color="#FEDD4F" />
      <stop offset="50%" stop-color="#F7931A" />
      <stop offset="100%" stop-color="#ED8A00" />
    </linearGradient>
    <linearGradient id="bitcoinGradient2" x1="0%" y1="0%" x2="100%" y2="100%">
      <stop offset="0%" stop-color="#FEE993" />
      <stop offset="100%" stop-color="#F38D00" />
    </linearGradient>
  </defs>
  
  <!-- Main circle background -->
  <circle cx="256" cy="256" r="256" fill="url(#bitcoinGradient1)" />
  
  <!-- Bitcoin B symbol - simplified version -->
  <path d="M182.99 387.09c-6.54-1-12.62-3.05-17.98-8.2-11.18-12.88-11.09-26.02-.17-39.95.3-.19.6-.38 1.34-.93 5.98-3.01 11.52-5.66 17.74-8.63.16-5.08-1.57-12.37 7.77-14.06 4.56.95 7.25 3.29 7.34 7.84.1 5.16.15 10.34-.02 15.5-.15 4.65-2.88 7.24-7.57 7.55-1.66.11-3.33.02-4.99.05-8.8.15-14.36 4.93-14.49 12.46-.13 7.83 5.44 12.91 14.43 13.02 7 .08 14 -.06 21 .05 5.8.09 8.46 2.83 8.58 8.66.09 4.5-.01 9 .03 13.5.06 8.74 4.89 14.33 12.44 14.42 7.78.1 12.69-5.48 12.77-14.56.04-4.33-.06-8.67.08-13 .13-6.23 2.72-8.95 8.77-9.03 7.5-.1 15-.11 22.5.01 5.76.09 8.39 2.86 8.49 8.74.08 5-.07 10.01.08 15.01.19 7.46 5.48 12.81 12.51 12.86 7.14.04 12.41-4.86 12.69-12.35.17-5.33.03-10.67.07-16 .04-6.6 1.55-8.66 7.65-10.5 26.78-8.1 43.33-26 47.61-53.45 4.15-26.62-5.76-48.32-27.64-64.31-5.53-4.04-4.92-7.31-1.22-13.09 19.92-30.88 11.65-67.73-19.75-87.33-3.8-2.37-5.56-5.38-5.48-9.84.14-7.66.17-15.33-.05-22.99-.21-7.26-5.46-12.27-12.42-12.32-6.93-.05-12.22 5.25-12.51 12.65-.14 4.99.01 10-.02 15-.04 8.13-2.68 10.91-10.84 10.99-7.33.08-14.67.08-22 0-6.08-.08-8.72-2.73-8.86-8.85-.12-5.16.12-10.33-.11-15.48-.28-7.12-5.57-12.24-12.44-12.25-6.87-.01-12.16 5.11-12.40 12.23-.16 4.51-.03 9.02-.04 13.53-.01 8.71-2.58 11.27-11.27 11.28-7 .01-14.01-.26-21 .04-7.14.31-11.90 5.11-12.07 11.74-.17 6.85 4.45 12.02 11.59 12.85 1.98.23 3.99.11 5.98.15 6.77.12 9.31 2.61 9.31 9.4.02 37.83.02 75.67 0 113.5 0 6.31-1.53 8.2-8.01 9.62-5.68-1.09-7.14-4.64-7.13-9.56.06-34.1.03-68.21.03-102.31v-4.76c-.39.36-.79.72-1.18 1.08-5.59-2.7-11.18-5.4-16.77-8.1-.21-.28-.43-.56-.86-.86-11.13-12.9-11.04-26.03.17-39.96 5.06-4.25 10.73-7.14 18.18-7.86 6.4-.03 11.95-.03 18.06-.03-1.32-11.3.29-21.04 7.9-28.98 15.81-12.17 32.55-10 43.65 6.19 1.92 7.76 3.51 14.96 5.16 22.43 1.98 0 4.84 0 8.13 0-1-10.82.39-20.66 8.06-28.61 17.33-15.01 39.54-6.58 45.45 10.3 1.81 5.15 2.23 11.14 1.83 16.64-.67 9.06 1.31 15.55 9.42 21.24 6.4 4.49 10.65 12.06 16.1 18.5 13.81 25.56 14.08 51.16.38 77.13 1.96 1.64 3.95 3.53 5.94 5.41 42.03 41.12 27.62 112.06-27.17 133.33-3.6 1.4-4.76 3.1-4.66 6.85.13 4.96.22 10.11-.77 14.86-5.15 20.42-28.96 27.24-46.19 12.92-8.44-8.2-8.92-18.25-8.38-28.64-3.37 0-6.13 0-7.99 0-1.71 7.85-3.34 15.33-5.03 22.81-12.3 15.91-28.74 18.3-43.66 2.43-8.45-8.18-8.94-18.23-8.38-28.64-5.63 0-11.38 0-17.01-.46z" fill="#040301"/>
  
  <!-- Inner Bitcoin symbol details -->
  <path d="M228.63 345.44c1.62.27 3.25.77 4.87.77 21.16.04 42.33.29 63.49-.07 22.8-.39 40.11-18.22 40.06-40.59-.05-22.23-17.39-39.95-39.64-39.95-21.16 0-42.33.04-63.49-.02-1.62 0-3.25.27-4.87.54-.42 26.44-.42 52.88-.42 79.32z" fill="url(#bitcoinGradient2)"/>
</svg>