<svg fill="none" height="32" viewBox="0 0 223 32" width="223" xmlns="http://www.w3.org/2000/svg">
<g clip-path="url(#clip0_3323_8045)">
<g opacity="0.5">
<path d="M15.9409 23.5371H3.00159L15.9409 0.537109V23.5371Z" fill="url(#paint0_linear_3323_8045)" opacity="0.5"></path>
</g>
<path d="M4.19336 24.4216C2.97921 24.4096 2.7213 24.9876 3.46725 25.9125C6.42328 29.596 10.9109 31.9998 15.9857 31.9998C21.0606 31.9998 25.5482 29.596 28.5042 25.9125C29.2502 24.9876 28.9883 24.4136 27.7781 24.4216C21.878 24.4495 4.19336 24.4216 4.19336 24.4216Z" fill="url(#paint1_radial_3323_8045)"></path>
<path d="M2.76484 21.934C2.16173 22.9904 1.54274 22.9306 1.11422 21.8224C-0.584011 17.4094 -0.413395 12.3028 2.12601 7.88582C4.66542 3.46885 8.97845 0.770036 13.6327 0.0365312C14.8032 -0.146845 15.1722 0.367405 14.5532 1.41584C14.5532 1.41584 5.68516 16.7915 2.76484 21.934Z" fill="url(#paint2_radial_3323_8045)"></path>
<path d="M17.4141 1.41602C16.8031 0.363604 17.1642 -0.146659 18.3347 0.0367168C22.9889 0.766235 27.302 3.46904 29.8414 7.88601C32.3808 12.303 32.5474 17.4096 30.8532 21.8226C30.4246 22.9348 29.8017 22.9946 29.2026 21.9342C29.2026 21.9342 20.3821 6.53062 17.4141 1.41602Z" fill="url(#paint3_radial_3323_8045)"></path>
<mask height="32" id="mask0_3323_8045" maskUnits="userSpaceOnUse" style="mask-type:alpha" width="32" x="0" y="0">
<path d="M4.22754 24.4216C3.01338 24.4096 2.75547 24.9876 3.50142 25.9125C6.45745 29.596 10.9451 31.9998 16.0199 31.9998C21.0948 31.9998 25.5824 29.596 28.5384 25.9125C29.2844 24.9876 29.0225 24.4136 27.8123 24.4216C21.9121 24.4495 4.22754 24.4216 4.22754 24.4216Z" fill="white"></path>
<path d="M2.79902 21.934C2.19591 22.9904 1.57692 22.9306 1.1484 21.8224C-0.54983 17.4094 -0.379213 12.3028 2.16019 7.88582C4.6996 3.46885 9.01263 0.770036 13.6669 0.0365312C14.8374 -0.146845 15.2064 0.367405 14.5874 1.41584C14.5874 1.41584 5.71934 16.7915 2.79902 21.934Z" fill="white"></path>
<path d="M17.4483 1.41602C16.8373 0.363604 17.1983 -0.146659 18.3689 0.0367168C23.0231 0.766235 27.3361 3.46904 29.8755 7.88601C32.415 12.303 32.5816 17.4096 30.8873 21.8226C30.4588 22.9348 29.8359 22.9946 29.2367 21.9342C29.2367 21.9342 20.4163 6.53062 17.4483 1.41602Z" fill="white"></path>
</mask>
<g mask="url(#mask0_3323_8045)">
<g filter="url(#filter0_f_3323_8045)" opacity="0.25">
<path d="M27.2178 9.38921C29.3671 13.1295 30.8462 17.4862 30.8867 21.7843C32.5832 17.3699 32.4134 12.2647 29.8749 7.84774C27.3364 3.43077 23.0215 0.731112 18.3682 0C22.0534 2.18401 25.0686 5.64974 27.2178 9.38921ZM2.15946 7.84802C4.69776 3.43105 9.01324 0.731392 13.6662 0.00027981C9.98151 2.18417 6.96593 5.6499 4.81703 9.38937C2.66813 13.1289 1.18833 17.4855 1.14818 21.7837C-0.548229 17.3691 -0.379036 12.2647 2.15946 7.84802ZM4.2265 24.3835C4.2265 24.3835 21.9129 24.4112 27.8082 24.3835C24.1819 26.3411 20.1318 27.4781 16.0172 27.4781C11.9025 27.4781 7.85246 26.3413 4.2265 24.3835Z" fill="black"></path>
</g>
<g filter="url(#filter1_f_3323_8045)" opacity="0.2">
<path d="M16.0167 28.8806C11.7186 28.8806 7.22353 27.9897 3.49821 25.8755C6.45555 29.5589 10.9404 31.9634 16.017 31.9634C21.0936 31.9634 25.5781 29.5588 28.535 25.8755C24.8099 27.9896 20.3152 28.8806 16.0167 28.8806ZM26.0091 10.0902C28.0662 13.6707 29.1117 17.7631 29.2373 21.8966C29.2373 21.8966 20.4177 6.49473 17.4462 1.37842C20.947 3.55517 23.9516 6.51056 26.0091 10.0902ZM14.5882 1.37842C14.5882 1.37842 5.72095 16.7534 2.7971 21.8966C2.92273 17.7623 3.96784 13.6707 6.02536 10.0902C8.08288 6.51056 11.0876 3.55437 14.5882 1.37842Z" fill="white"></path>
</g>
</g>
<path d="M53.0144 10.2688C53.0144 10.0977 53.158 9.94092 53.3448 9.94092H60.4411C60.6279 9.94092 60.7715 10.0977 60.7715 10.2688V11.6943C60.7715 11.8654 60.6279 12.0222 60.4411 12.0222H55.2697V15.2724H59.5792C59.7516 15.2724 59.9096 15.4292 59.9096 15.6002V17.0258C59.9096 17.1968 59.7516 17.3536 59.5792 17.3536H55.2697V21.73C55.2697 21.9011 55.1117 22.0578 54.9393 22.0578H53.3304C53.1437 22.0578 53 21.9011 53 21.73V10.2688H53.0144Z" fill="#F8F8F8"></path>
<path d="M74.6348 9.77051C78.1255 9.77051 80.9123 12.5645 80.9123 16.0285C80.9123 19.4926 78.1255 22.2438 74.6348 22.2438C71.1441 22.2438 68.3716 19.4926 68.3716 16.0285C68.3716 12.5645 71.1441 9.77051 74.6348 9.77051ZM74.6348 19.9772C76.8327 19.9772 78.6426 18.1953 78.6426 16.0143C78.6426 13.8332 76.8327 12.0086 74.6348 12.0086C72.4369 12.0086 70.6413 13.8332 70.6413 16.0143C70.6269 18.1953 72.4226 19.9772 74.6348 19.9772Z" fill="#F8F8F8"></path>
<path d="M89.3871 10.2688C89.3871 10.0977 89.5451 9.94092 89.7175 9.94092H91.3695C91.5563 9.94092 91.6999 10.0977 91.6999 10.2688V17.3536C91.6999 18.8219 92.7055 19.9908 94.2282 19.9908C95.7509 19.9908 96.7708 18.8362 96.7708 17.3821V10.283C96.7708 10.112 96.9144 9.95517 97.1012 9.95517H98.7532C98.9256 9.95517 99.0836 10.112 99.0836 10.283V17.4819C99.0836 20.1191 96.9719 22.2432 94.2138 22.2432C91.4701 22.2432 89.3584 20.1191 89.3584 17.4819V10.2688H89.3871Z" fill="#F8F8F8"></path>
<path d="M108.493 10.0695C108.493 9.8984 108.651 9.75586 108.823 9.75586H109.254L116.509 17.4109H116.523V10.2548C116.523 10.0837 116.667 9.92691 116.853 9.92691H118.462C118.635 9.92691 118.793 10.0837 118.793 10.2548V21.9155C118.793 22.0866 118.635 22.2292 118.462 22.2292H118.046L110.748 14.2748H110.734V21.716C110.734 21.887 110.59 22.0438 110.403 22.0438H108.809C108.637 22.0438 108.479 21.887 108.479 21.716V10.0695H108.493Z" fill="#F8F8F8"></path>
<path d="M128.345 10.2688C128.345 10.0977 128.488 9.94092 128.661 9.94092H132.798C136.159 9.94092 138.917 12.6637 138.917 15.9851C138.917 19.3494 136.159 22.0578 132.798 22.0578H128.661C128.488 22.0578 128.345 21.9011 128.345 21.73V10.2688ZM132.582 19.9481C134.852 19.9481 136.504 18.2517 136.504 15.9851C136.504 13.7328 134.852 12.0364 132.582 12.0364H130.586V19.9481H132.582Z" fill="#F8F8F8"></path>
<path d="M148.226 21.716C148.154 21.887 147.996 22.0581 147.723 22.0581H146.201C145.942 22.0581 145.798 21.83 145.899 21.6019L151.329 9.94117C151.386 9.84138 151.473 9.75586 151.631 9.75586H151.803C151.975 9.75586 152.047 9.84138 152.105 9.94117L157.477 21.6019C157.578 21.83 157.449 22.0581 157.176 22.0581H155.653C155.394 22.0581 155.265 21.9583 155.15 21.716L151.688 14.1179H151.631L148.226 21.716Z" fill="#F8F8F8"></path>
<path d="M166.428 12.0222H163.756C163.569 12.0222 163.426 11.8654 163.426 11.6943V10.2688C163.426 10.0977 163.569 9.94092 163.756 9.94092H171.384C171.571 9.94092 171.714 10.0977 171.714 10.2688V11.6943C171.714 11.8654 171.571 12.0222 171.384 12.0222H168.712V21.7442C168.712 21.9153 168.554 22.0721 168.382 22.0721H166.759C166.586 22.0721 166.428 21.9153 166.428 21.7442V12.0222Z" fill="#F8F8F8"></path>
<path d="M179.902 10.2688C179.902 10.0977 180.06 9.94092 180.233 9.94092H181.856C182.028 9.94092 182.186 10.0977 182.186 10.2688V21.73C182.186 21.9011 182.028 22.0578 181.856 22.0578H180.233C180.06 22.0578 179.902 21.9011 179.902 21.73V10.2688Z" fill="#F8F8F8"></path>
<path d="M197.126 9.77051C200.617 9.77051 203.404 12.5645 203.404 16.0285C203.404 19.4926 200.617 22.2438 197.126 22.2438C193.635 22.2438 190.863 19.4926 190.863 16.0285C190.863 12.5645 193.635 9.77051 197.126 9.77051ZM197.126 19.9772C199.324 19.9772 201.134 18.1953 201.134 16.0143C201.134 13.8332 199.324 12.0086 197.126 12.0086C194.928 12.0086 193.132 13.8332 193.132 16.0143C193.132 18.1953 194.928 19.9772 197.126 19.9772Z" fill="#F8F8F8"></path>
<path d="M212.066 10.0695C212.066 9.8984 212.224 9.75586 212.397 9.75586H212.827L220.082 17.4109H220.096V10.2548C220.096 10.0837 220.24 9.92691 220.427 9.92691H222.036C222.208 9.92691 222.366 10.0837 222.366 10.2548V21.9155C222.366 22.0866 222.208 22.2292 222.036 22.2292H221.619L214.321 14.2748H214.307V21.716C214.307 21.887 214.163 22.0438 213.977 22.0438H212.382C212.21 22.0438 212.052 21.887 212.052 21.716V10.0695H212.066Z" fill="#F8F8F8"></path>
</g>
<defs>
<filter color-interpolation-filters="sRGB" filterUnits="userSpaceOnUse" height="29.5656" id="filter0_f_3323_8045" width="34.0529" x="-1.00913" y="-1.0438">
<feflood flood-opacity="0" result="BackgroundImageFix"></feflood>
<feblend in="SourceGraphic" in2="BackgroundImageFix" mode="normal" result="shape"></feblend>
<fegaussianblur result="effect1_foregroundBlur_3323_8045" stddeviation="0.521901"></fegaussianblur>
</filter>
<filter color-interpolation-filters="sRGB" filterUnits="userSpaceOnUse" height="32.6726" id="filter1_f_3323_8045" width="28.528" x="1.75307" y="0.334617">
<feflood flood-opacity="0" result="BackgroundImageFix"></feflood>
<feblend in="SourceGraphic" in2="BackgroundImageFix" mode="normal" result="shape"></feblend>
<fegaussianblur result="effect1_foregroundBlur_3323_8045" stddeviation="0.521901"></fegaussianblur>
</filter>
<linearGradient gradientUnits="userSpaceOnUse" id="paint0_linear_3323_8045" x1="15.9409" x2="16.0281" y1="30.0267" y2="0.526929">
<stop offset="0.216102" stop-color="white" stop-opacity="0"></stop>
<stop offset="1" stop-color="white"></stop>
</linearGradient>
<radialGradient cx="0" cy="0" gradientTransform="translate(16.0303 15.894) rotate(180) scale(16.0086 16.0837)" gradientUnits="userSpaceOnUse" id="paint1_radial_3323_8045" r="1">
<stop offset="0.5" stop-color="#BB6E5A"></stop>
<stop offset="0.75" stop-color="#DE9173"></stop>
<stop offset="1" stop-color="#FAC2A9"></stop>
</radialGradient>
<radialGradient cx="0" cy="0" gradientTransform="translate(16.0042 15.9201) rotate(180) scale(16.0052 16.0803)" gradientUnits="userSpaceOnUse" id="paint2_radial_3323_8045" r="1">
<stop offset="0.5" stop-color="#FAC2A9"></stop>
<stop offset="0.75" stop-color="#DE9173"></stop>
<stop offset="1" stop-color="#BB6E5A"></stop>
</radialGradient>
<radialGradient cx="0" cy="0" gradientTransform="translate(15.9913 15.9137) rotate(180) scale(16.0282 16.1034)" gradientUnits="userSpaceOnUse" id="paint3_radial_3323_8045" r="1">
<stop offset="0.5" stop-color="#FAC2A9"></stop>
<stop offset="0.75" stop-color="#DE9173"></stop>
<stop offset="1" stop-color="#BB6E5A"></stop>
</radialGradient>
<clipPath id="clip0_3323_8045">
<rect fill="white" height="32" width="222.366"></rect>
</clipPath>
</defs>
</svg>