<svg version="1.1" id="Layer_1" xmlns:x="ns_extend;" xmlns:i="ns_ai;" xmlns:graph="ns_graphs;" xmlns="http://www.w3.org/2000/svg" xmlns:xlink="http://www.w3.org/1999/xlink" x="0px" y="0px" viewBox="0 0 349.3 83" style="enable-background:new 0 0 349.3 83;" xml:space="preserve">
 <style type="text/css">
  .st0{fill:#141415;}
	.st1{fill:#C5A063;}
 </style>
 <metadata>
  <sfw xmlns="ns_sfw;">
   <slices>
   </slices>
   <sliceSourceBounds bottomLeftOrigin="true" height="83" width="349.3" x="-189.4" y="1">
   </sliceSourceBounds>
  </sfw>
 </metadata>
 <g>
  <path class="st0" d="M165.8,66h-12.4l-8.8-17.1H130V66h-11V16.4h27c5.7,0,10.1,1.5,13.3,4.6c3.1,3.1,4.7,6.9,4.7,11.5
		c0,3.1-0.7,5.9-2.2,8.4c-1.5,2.6-3.6,4.5-6.4,5.9L165.8,66L165.8,66z M130,37.9h16.6c2.1,0,3.7-0.5,4.8-1.4
		c1.1-0.9,1.7-2.2,1.7-3.8c0-1.6-0.6-2.9-1.7-3.9c-1.1-1-2.7-1.4-4.8-1.4H130V37.9L130,37.9z M184.1,66h-11V16.4h11V66z M217.8,65.5
		l14.2-49.1h12L229.6,66h-24.1l-13.7-49.6h12L217.8,65.5L217.8,65.5z M294.3,55v11h-43.9V16.4h43.5v11h-32.5v8.4h32.2v10.9h-32.2V55
		L294.3,55L294.3,55z M349.3,66h-12.4l-8.8-17.1h-14.6V66h-11V16.4h27c5.7,0,10.1,1.5,13.3,4.6c3.1,3.1,4.7,6.9,4.7,11.5
		c0,3.1-0.7,5.9-2.2,8.4c-1.5,2.6-3.6,4.5-6.4,5.9L349.3,66L349.3,66z M313.6,37.9h16.6c2.1,0,3.7-0.5,4.8-1.4
		c1.1-0.9,1.7-2.2,1.7-3.8c0-1.6-0.6-2.9-1.7-3.9c-1.1-1-2.7-1.4-4.8-1.4h-16.6V37.9L313.6,37.9z">
  </path>
  <path class="st1" d="M14.2,75.1l27.7-60.7c0.1-0.2,0.5-0.1,0.4,0.2L22.4,72.1c3-0.9,6-1.7,9.1-2.3l13.2-54.5
		c0.1-0.3,0.5-0.2,0.4,0.1l-7.7,53.4c2.5-0.3,5.1-0.5,7.7-0.6l2.5-52.6c0-0.3,0.4-0.3,0.4,0l2.5,52.6c2.6,0.1,5.2,0.3,7.7,0.6
		l-7.7-53.4c0-0.3,0.4-0.3,0.4-0.1l13.2,54.5c3.1,0.6,6.1,1.4,9.1,2.3L53.5,14.6c-0.1-0.3,0.3-0.4,0.4-0.2l27.7,60.7
		c5,2.2,9.8,4.8,14.2,7.9L47.9,0L0,83C4.4,79.9,9.2,77.3,14.2,75.1">
  </path>
 </g>
</svg>