<?xml version="1.0" standalone="no"?>
<!DOCTYPE svg PUBLIC "-//W3C//DTD SVG 20010904//EN"
 "http://www.w3.org/TR/2001/REC-SVG-20010904/DTD/svg10.dtd">
<svg version="1.0" xmlns="http://www.w3.org/2000/svg"
 width="3200.000000pt" height="3200.000000pt" viewBox="0 0 3200.000000 3200.000000"
 preserveAspectRatio="xMidYMid meet">

<g transform="translate(0.000000,3200.000000) scale(0.100000,-0.100000)"
fill="#000000" stroke="none">
<path d="M15775 25325 c-5 -2 -98 -9 -205 -15 -300 -17 -452 -34 -702 -80
-233 -42 -362 -75 -594 -150 -138 -45 -144 -47 -216 -79 -26 -12 -50 -21 -53
-21 -8 0 -115 -49 -231 -107 -432 -212 -834 -538 -1120 -908 -42 -54 -184
-273 -184 -284 0 -4 -9 -16 -20 -26 -11 -10 -20 -22 -20 -27 0 -12 -38 -65
-82 -113 -20 -22 -58 -69 -84 -105 -27 -36 -51 -67 -55 -70 -8 -7 -129 -188
-129 -194 0 -3 -13 -24 -29 -48 -32 -47 -135 -247 -164 -318 -11 -25 -27 -64
-38 -87 -10 -24 -19 -47 -19 -53 0 -6 -4 -18 -9 -28 -57 -112 -145 -433 -186
-682 -40 -235 -49 -362 -49 -685 0 -372 15 -536 74 -815 5 -25 14 -67 19 -95
28 -141 111 -425 142 -487 7 -14 -7 -34 -66 -94 -151 -152 -236 -322 -285
-567 -36 -181 -21 -544 30 -722 6 -22 15 -56 19 -75 10 -40 37 -123 53 -160 6
-14 14 -34 18 -45 5 -11 17 -41 29 -67 12 -26 21 -50 21 -53 0 -9 113 -200
136 -230 123 -159 202 -236 321 -312 64 -42 158 -83 228 -101 22 -6 59 -15 81
-21 23 -6 79 -11 126 -11 81 0 85 -1 96 -25 7 -14 12 -30 12 -36 0 -5 9 -29
20 -51 11 -23 20 -45 20 -50 0 -5 9 -30 21 -56 12 -26 24 -56 29 -67 44 -115
251 -525 283 -559 9 -11 17 -23 17 -27 0 -9 149 -241 160 -249 3 -3 22 -27 40
-55 104 -152 250 -323 458 -535 78 -80 142 -150 142 -156 0 -5 -69 -80 -152
-165 -164 -168 -202 -211 -265 -304 -23 -34 -48 -67 -57 -74 -9 -7 -16 -17
-16 -22 0 -4 -13 -28 -30 -52 -16 -25 -30 -48 -30 -52 0 -4 -9 -19 -19 -34
-11 -15 -47 -81 -80 -148 -33 -66 -66 -125 -73 -130 -7 -6 -29 -15 -48 -21
-19 -6 -64 -19 -100 -30 -36 -10 -85 -25 -110 -32 -25 -7 -54 -16 -65 -20 -11
-4 -40 -14 -65 -21 -25 -7 -49 -16 -55 -21 -5 -4 -17 -8 -27 -8 -10 0 -26 -4
-36 -9 -15 -9 -56 -24 -272 -103 -65 -24 -99 -37 -122 -49 -10 -5 -23 -9 -28
-9 -6 0 -30 -9 -52 -20 -23 -11 -46 -20 -50 -20 -5 0 -28 -9 -50 -20 -23 -11
-45 -20 -50 -20 -5 0 -27 -8 -51 -19 -23 -10 -130 -54 -237 -97 -107 -42 -199
-81 -205 -86 -5 -4 -15 -8 -22 -8 -7 0 -35 -9 -61 -21 -26 -12 -56 -25 -67
-29 -27 -11 -81 -34 -135 -58 -25 -11 -85 -36 -135 -57 -49 -20 -110 -47 -135
-60 -25 -12 -94 -47 -155 -76 -60 -30 -147 -75 -193 -101 -46 -27 -86 -48 -89
-48 -2 0 -36 -20 -74 -45 -38 -25 -73 -45 -78 -45 -4 0 -16 -9 -26 -20 -10
-11 -24 -20 -31 -20 -7 0 -14 -4 -16 -8 -1 -4 -32 -28 -68 -52 -172 -118 -340
-268 -475 -425 -33 -39 -62 -72 -65 -75 -77 -77 -285 -431 -351 -597 -21 -53
-32 -79 -40 -95 -5 -10 -9 -27 -9 -37 0 -11 -4 -22 -9 -25 -5 -3 -11 -18 -14
-33 -3 -16 -10 -44 -15 -63 -6 -19 -22 -80 -37 -135 -24 -93 -33 -130 -56
-242 -5 -24 -13 -62 -19 -85 -5 -24 -14 -68 -20 -98 -7 -30 -16 -75 -21 -100
-6 -25 -12 -61 -15 -80 -3 -19 -9 -44 -14 -55 -5 -11 -11 -36 -14 -55 -7 -50
-23 -128 -35 -175 -23 -89 -33 -132 -41 -175 -5 -25 -13 -63 -19 -85 -54 -220
-78 -322 -92 -395 -5 -30 -14 -77 -20 -105 -5 -27 -14 -72 -18 -100 -14 -81
-30 -166 -41 -220 -6 -27 -15 -77 -20 -110 -5 -33 -14 -87 -20 -120 -6 -33
-14 -87 -19 -120 -14 -94 -31 -133 -79 -185 -100 -105 -208 -253 -260 -356
-41 -82 -102 -234 -102 -255 0 -10 -4 -20 -9 -23 -5 -3 -11 -18 -14 -33 -4
-16 -11 -50 -17 -78 -30 -136 -34 -185 -34 -395 0 -257 11 -343 62 -495 33
-99 74 -196 109 -258 18 -33 33 -61 33 -63 0 -5 37 -58 88 -126 78 -106 238
-255 327 -304 77 -43 138 -73 190 -93 33 -13 69 -26 80 -31 11 -4 38 -12 60
-18 201 -54 204 -54 1235 -59 1253 -6 1781 13 2350 87 47 6 117 15 155 20 39
5 98 14 133 20 111 18 199 32 377 60 384 60 667 61 950 1 62 -14 140 -29 225
-43 87 -16 584 -16 675 -1 95 16 189 37 278 62 20 6 52 15 70 20 108 29 355
139 427 191 16 11 31 20 34 20 6 0 119 76 177 119 22 16 49 8 49 -14 0 -9 14
-46 32 -83 24 -50 54 -89 122 -157 50 -50 109 -100 131 -111 22 -11 49 -25 60
-31 11 -6 31 -15 45 -20 14 -6 36 -15 50 -20 45 -18 96 -33 113 -33 10 0 25
-4 35 -9 35 -19 208 -44 427 -63 211 -18 2047 -18 2215 1 126 13 247 32 330
52 25 6 57 13 73 16 15 3 30 9 33 14 3 5 14 9 24 9 11 0 35 9 55 20 20 11 40
20 45 20 5 0 40 20 77 44 113 73 192 167 243 291 7 17 16 38 21 47 5 10 9 27
9 37 0 11 4 22 9 25 5 3 11 23 15 43 3 21 10 65 16 98 6 33 13 101 16 152 6
91 7 92 37 102 16 6 41 11 55 11 14 0 39 4 56 9 17 5 56 15 86 21 70 15 175
48 218 68 18 8 34 13 36 11 3 -5 -8 -327 -24 -678 l-11 -254 27 -41 c70 -109
118 -136 240 -136 95 0 133 13 183 61 64 61 66 70 64 324 -2 127 -8 301 -14
388 -11 148 -8 330 7 522 l7 80 87 87 c147 147 166 207 190 608 14 227 8 975
-9 1190 -21 270 -59 553 -92 690 -6 25 -13 60 -16 78 -3 18 -9 35 -14 38 -5 3
-9 14 -9 25 0 10 -4 27 -9 37 -5 9 -15 30 -22 47 -22 46 -114 133 -156 145
-81 25 -184 47 -278 61 -138 20 -376 45 -526 55 l-86 6 -11 67 c-7 36 -14 82
-17 101 -3 19 -10 55 -15 80 -5 25 -12 61 -15 80 -16 88 -97 196 -181 242 -76
42 -124 51 -234 43 -58 -4 -305 -11 -550 -16 -534 -11 -875 -28 -1165 -59
-166 -17 -295 -30 -383 -36 l-84 -7 6 79 c3 44 8 120 12 171 5 74 9 93 22 97
69 21 317 29 872 30 l615 1 46 23 c109 54 158 157 145 304 -5 46 -12 137 -16
203 -9 115 -17 192 -40 375 -20 157 -28 209 -59 385 -18 104 -72 352 -91 420
-6 22 -14 51 -16 65 -3 14 -9 34 -14 45 -4 11 -13 40 -20 65 -6 25 -16 53 -21
62 -5 10 -9 27 -9 37 0 11 -4 23 -10 26 -5 3 -10 15 -10 27 0 15 4 18 18 13
22 -9 118 -41 307 -100 83 -26 159 -51 170 -56 11 -4 52 -18 90 -30 69 -21 94
-30 138 -48 12 -6 42 -17 67 -25 25 -8 83 -29 130 -46 47 -18 115 -42 152 -55
36 -13 83 -31 105 -40 21 -9 47 -20 58 -25 11 -4 34 -13 50 -20 17 -7 39 -16
50 -20 11 -4 43 -18 70 -30 28 -12 59 -26 70 -30 88 -34 418 -183 470 -212 11
-6 60 -32 110 -58 173 -90 382 -217 423 -257 7 -7 17 -13 20 -13 4 0 18 -10
32 -22 14 -13 41 -35 60 -49 104 -78 307 -300 398 -435 72 -108 156 -269 192
-369 12 -33 25 -69 30 -80 11 -25 63 -185 80 -245 6 -25 16 -55 21 -68 5 -13
9 -36 9 -52 0 -16 4 -31 9 -34 5 -3 11 -23 14 -43 3 -21 10 -59 16 -85 39
-174 43 -191 80 -388 32 -170 49 -260 57 -295 3 -11 9 -45 14 -75 5 -30 14
-77 19 -105 12 -66 31 -168 41 -230 11 -61 31 -167 60 -320 6 -27 15 -77 20
-110 6 -33 15 -82 20 -110 4 -27 13 -79 19 -115 5 -36 15 -94 21 -130 5 -36
17 -110 26 -165 8 -55 20 -129 25 -165 6 -36 14 -90 19 -120 5 -30 14 -89 20
-130 6 -41 16 -102 21 -135 5 -33 13 -89 19 -125 5 -36 14 -94 20 -130 25
-166 39 -263 60 -420 6 -47 15 -114 20 -150 26 -191 40 -310 66 -540 9 -80 20
-181 25 -225 5 -44 14 -123 20 -175 35 -316 42 -343 108 -402 53 -49 98 -62
188 -55 117 9 184 65 219 185 16 58 16 76 -7 227 -5 33 -14 96 -19 140 -6 44
-14 109 -20 145 -5 36 -14 102 -19 148 -20 153 -32 247 -42 317 -5 39 -13 111
-19 160 -11 96 -22 178 -39 290 -6 39 -15 95 -20 125 -15 97 -70 482 -81 565
-6 44 -15 105 -20 135 -5 30 -12 73 -15 95 -3 22 -10 63 -14 90 -5 28 -14 79
-20 115 -6 36 -16 90 -21 120 -6 30 -14 82 -20 115 -5 33 -14 85 -19 115 -5
30 -12 73 -16 95 -3 22 -10 58 -15 80 -5 22 -14 74 -20 115 -6 41 -15 98 -20
125 -17 94 -30 170 -55 330 -14 88 -29 183 -35 210 -5 28 -12 68 -16 90 -3 22
-10 63 -15 90 -5 28 -13 77 -19 110 -13 76 -29 165 -41 230 -5 28 -14 73 -19
100 -5 28 -14 73 -19 100 -6 28 -14 73 -20 100 -9 52 -27 135 -42 195 -4 19
-11 49 -15 65 -26 122 -99 358 -125 407 -5 10 -9 25 -9 33 0 8 -4 23 -9 33 -5
9 -13 28 -19 42 -37 95 -160 321 -214 395 -16 22 -58 81 -94 130 -69 95 -303
339 -392 409 -30 22 -72 56 -95 74 -65 51 -176 126 -279 187 -81 50 -467 245
-483 245 -3 0 -27 9 -53 21 -26 12 -56 25 -67 29 -11 4 -41 17 -67 29 -26 12
-50 21 -53 21 -3 0 -24 9 -48 19 -52 23 -304 121 -442 171 -33 12 -70 26 -82
31 -13 5 -33 13 -45 18 -13 5 -39 14 -58 21 -42 15 -79 29 -102 41 -10 5 -27
9 -37 9 -11 0 -23 5 -26 10 -3 6 -15 10 -26 10 -10 0 -27 5 -37 10 -22 13
-354 122 -487 160 -16 5 -48 14 -70 20 -22 6 -55 15 -72 21 -104 30 -150 42
-228 59 -22 5 -60 14 -85 20 -25 6 -63 15 -85 20 -98 22 -90 15 -131 113 -21
51 -56 123 -76 161 -21 38 -38 71 -38 73 0 2 -13 24 -30 48 -16 24 -30 46 -30
50 0 10 -81 126 -136 195 -58 73 -263 276 -336 334 -27 20 -48 43 -48 49 0 6
75 88 168 182 173 177 214 223 304 340 29 39 55 72 58 75 3 3 17 21 30 40 13
19 27 37 30 40 9 7 172 255 198 300 11 19 39 67 63 105 39 65 209 396 209 409
0 4 9 28 21 54 12 26 25 57 30 70 5 12 13 32 19 45 5 12 20 56 34 97 l24 75
79 7 c175 15 310 64 463 168 72 49 215 193 266 268 21 31 42 59 45 62 10 7
101 186 122 240 10 25 22 54 27 65 8 17 22 60 80 241 6 17 10 42 10 55 0 14 4
29 9 35 9 9 12 28 33 204 21 177 13 366 -22 510 -6 25 -14 60 -17 78 -3 18 -9
35 -14 38 -5 3 -9 14 -9 25 0 10 -4 27 -9 37 -5 9 -14 31 -21 47 -41 98 -106
198 -185 283 -53 57 -67 93 -47 118 4 5 14 27 21 49 7 22 16 49 21 60 8 18 29
83 60 180 9 30 43 162 61 240 20 86 45 238 57 351 5 38 11 74 14 80 3 5 8 115
12 244 8 301 -9 629 -43 815 -6 33 -14 76 -17 95 -5 35 -9 53 -39 185 -25 108
-68 260 -85 300 -4 11 -18 47 -30 80 -26 70 -34 91 -48 125 -202 489 -492 862
-823 1059 -43 26 -63 46 -84 85 -70 130 -91 166 -138 236 -28 41 -53 77 -56
80 -3 3 -26 32 -51 65 -91 121 -249 274 -411 398 -145 110 -413 266 -544 317
-11 4 -40 17 -65 28 -139 62 -432 159 -590 194 -58 13 -114 26 -165 39 -71 18
-217 45 -427 79 -60 10 -148 20 -343 40 -211 22 -824 47 -850 35z m594 -496
c30 -5 75 -9 100 -9 25 0 70 -4 100 -9 31 -6 124 -19 206 -31 83 -11 173 -25
200 -31 28 -5 71 -12 98 -16 26 -3 50 -10 53 -14 3 -5 17 -9 31 -9 15 0 40 -4
57 -9 17 -5 51 -15 76 -21 127 -32 193 -51 212 -61 10 -5 27 -9 38 -9 11 0 28
-4 38 -9 9 -5 35 -14 57 -20 40 -12 60 -20 225 -81 222 -83 443 -202 605 -325
60 -45 217 -204 256 -258 19 -27 44 -61 57 -77 12 -15 22 -31 22 -35 0 -3 13
-25 28 -48 26 -38 70 -126 118 -232 31 -69 83 -139 121 -165 21 -14 40 -27 43
-31 11 -12 101 -70 156 -100 131 -71 218 -145 300 -254 49 -66 140 -208 155
-242 8 -18 17 -33 21 -33 5 0 8 -9 8 -20 0 -11 5 -20 10 -20 6 0 10 -6 10 -13
0 -7 13 -39 29 -72 27 -56 83 -210 102 -280 4 -16 17 -66 29 -110 36 -135 54
-227 70 -365 5 -47 15 -112 20 -145 6 -33 13 -82 16 -110 3 -27 9 -59 14 -70
16 -37 23 -140 23 -360 1 -250 -18 -421 -72 -665 -9 -42 -14 -62 -40 -167 -29
-114 -63 -217 -93 -277 -18 -34 -60 -86 -71 -86 -3 0 -7 37 -11 83 -3 45 -10
109 -15 142 -5 33 -14 92 -20 130 -24 152 -69 370 -102 486 -12 41 -23 89 -26
107 -3 18 -9 35 -14 38 -5 3 -9 16 -9 29 0 13 -4 27 -10 30 -5 3 -10 17 -10
30 0 13 -4 27 -10 30 -5 3 -10 15 -10 26 0 10 -5 29 -12 42 -23 46 -28 57 -28
70 0 7 -9 32 -20 55 -11 22 -20 46 -20 52 0 5 -4 18 -10 28 -17 31 -50 106
-50 114 0 10 -192 398 -225 456 -14 23 -50 84 -80 134 -30 50 -55 93 -55 95 0
5 -126 189 -190 278 -27 39 -58 81 -67 95 -9 14 -30 41 -45 60 -16 19 -32 40
-36 45 -17 23 -77 100 -82 105 -3 3 -34 38 -69 78 -74 84 -106 104 -172 105
-54 1 -83 -16 -218 -127 -46 -38 -103 -84 -127 -102 -61 -47 -273 -184 -283
-184 -5 0 -11 -4 -13 -8 -5 -13 -360 -187 -473 -232 -11 -4 -41 -17 -67 -29
-26 -12 -54 -21 -62 -21 -8 0 -18 -4 -21 -10 -3 -5 -16 -10 -29 -10 -12 0 -26
-4 -31 -8 -6 -5 -30 -14 -55 -21 -25 -7 -54 -17 -65 -21 -11 -5 -31 -11 -45
-15 -14 -3 -38 -10 -55 -15 -114 -32 -189 -49 -350 -80 -27 -5 -63 -12 -80
-15 -188 -38 -488 -75 -780 -96 -213 -16 -1039 -17 -1170 -1 -199 23 -303 44
-430 86 -100 34 -246 104 -305 147 -66 49 -129 79 -165 79 -50 0 -93 -37 -177
-150 -43 -58 -81 -109 -86 -115 -4 -5 -44 -64 -88 -130 -95 -142 -124 -190
-231 -380 -52 -94 -158 -318 -193 -410 -13 -33 -26 -64 -30 -70 -3 -5 -13 -30
-20 -55 -7 -25 -16 -49 -20 -55 -4 -5 -12 -30 -20 -55 -7 -25 -17 -49 -22 -55
-4 -5 -8 -17 -8 -27 0 -10 -4 -26 -9 -36 -8 -16 -14 -35 -41 -132 -7 -25 -16
-55 -21 -68 -5 -13 -9 -34 -9 -47 0 -13 -4 -26 -9 -29 -4 -3 -11 -25 -14 -48
-4 -24 -11 -63 -17 -88 -6 -25 -20 -103 -32 -175 -11 -71 -24 -134 -29 -139
-4 -4 -20 -2 -36 7 -15 8 -41 20 -58 27 -16 7 -38 16 -47 21 -10 5 -26 9 -35
9 -19 0 -43 41 -43 71 0 10 -4 20 -9 23 -5 3 -11 20 -14 38 -3 18 -10 49 -16
68 -22 74 -33 117 -42 158 -5 23 -14 63 -20 90 -24 112 -51 285 -81 522 -16
130 -16 476 0 590 19 136 46 288 62 350 6 25 14 63 17 85 3 22 9 44 14 49 5 6
9 21 9 35 0 25 16 83 31 113 5 10 9 25 9 34 0 20 74 241 102 304 44 100 113
237 140 277 15 23 28 44 28 47 0 10 93 160 112 182 10 11 18 24 18 28 0 6 55
82 70 96 3 3 21 25 40 50 19 25 50 61 68 80 41 43 92 115 92 129 0 6 5 11 10
11 6 0 10 5 10 10 0 6 18 40 40 76 22 36 40 69 40 73 0 3 18 30 40 59 22 29
40 55 40 58 0 7 74 95 140 167 140 152 440 381 595 457 16 8 32 17 35 20 10
12 277 138 360 170 47 18 104 41 127 51 24 11 49 19 57 19 8 0 18 5 21 10 3 6
17 10 30 10 13 0 27 5 30 10 3 6 17 10 30 10 13 0 27 5 30 10 3 6 17 10 30 10
13 0 27 5 30 10 3 6 19 10 35 10 16 0 31 4 34 9 3 5 18 11 33 14 27 6 75 17
158 38 142 36 334 68 540 91 213 23 840 28 964 7z m2029 -2722 c95 -130 192
-273 192 -286 0 -6 5 -11 10 -11 6 0 10 -5 10 -11 0 -6 9 -23 20 -39 32 -45
85 -145 181 -340 50 -102 95 -193 100 -202 5 -10 9 -25 9 -33 0 -8 5 -15 10
-15 6 0 10 -7 10 -15 0 -9 8 -33 19 -54 10 -21 44 -119 76 -217 32 -99 61
-188 65 -199 20 -54 30 -93 30 -113 0 -11 5 -24 10 -27 6 -3 10 -19 10 -35 0
-16 5 -32 10 -35 6 -3 10 -23 10 -44 0 -20 4 -41 9 -47 5 -5 11 -27 14 -49 4
-22 11 -65 17 -95 19 -99 31 -164 40 -230 26 -193 33 -249 34 -290 l1 -45
-180 -3 c-99 -2 -235 0 -302 3 l-122 7 -38 76 c-121 250 -319 447 -568 567
-44 21 -88 42 -97 47 -10 4 -25 8 -33 8 -8 0 -23 4 -33 9 -9 5 -36 14 -59 20
-24 6 -60 15 -80 21 -95 24 -350 19 -478 -10 -27 -6 -62 -13 -78 -17 -15 -3
-30 -9 -33 -14 -3 -5 -12 -9 -19 -9 -8 0 -39 -11 -69 -25 -30 -14 -57 -25 -59
-25 -3 0 -37 -18 -77 -40 -207 -118 -388 -308 -495 -522 l-39 -78 -336 0 -336
0 -29 62 c-33 69 -103 181 -116 186 -5 2 -9 9 -9 15 0 23 -225 234 -304 287
-67 44 -147 86 -251 130 -240 100 -592 101 -845 1 -179 -71 -304 -154 -440
-291 -104 -104 -145 -162 -207 -291 l-48 -99 -249 0 c-233 0 -248 1 -240 18 4
9 11 44 15 77 10 79 39 220 77 380 35 145 113 403 142 473 11 25 26 60 39 95
46 119 215 484 231 497 3 3 18 30 33 60 15 30 41 78 57 105 16 28 42 71 56 98
20 34 33 47 50 47 13 0 26 -4 29 -10 3 -5 17 -10 30 -10 13 0 26 -4 29 -9 3
-5 18 -11 33 -14 16 -3 46 -11 68 -17 111 -32 284 -64 455 -85 260 -31 434
-40 790 -40 352 0 500 7 820 40 210 22 453 58 575 85 28 6 70 15 95 20 25 5
63 13 85 19 98 25 132 33 163 38 18 3 35 9 38 14 3 5 15 9 26 9 20 0 59 11
113 30 11 4 88 29 170 56 83 26 157 51 165 55 8 4 26 11 40 17 152 62 378 170
519 249 51 29 97 53 102 53 5 0 9 4 9 9 0 5 14 14 30 21 17 7 30 16 30 21 0 5
5 9 10 9 6 0 47 25 92 55 45 30 85 52 90 49 4 -3 39 -47 76 -97z m-3658 -2146
c89 -15 124 -26 207 -67 161 -79 275 -193 350 -349 54 -113 58 -136 58 -335 0
-204 -3 -221 -73 -355 -58 -112 -215 -258 -337 -314 -16 -7 -38 -17 -47 -22
-10 -5 -27 -9 -37 -9 -11 0 -22 -4 -25 -9 -20 -32 -387 -32 -420 0 -6 5 -18 9
-28 9 -52 0 -218 102 -295 182 -55 56 -153 209 -153 239 0 10 -4 21 -10 24 -5
3 -10 17 -10 30 0 13 -4 26 -9 29 -16 10 -24 78 -23 201 0 126 8 204 23 220 5
5 9 16 9 25 0 24 65 153 109 219 103 151 307 266 511 290 77 8 105 7 200 -8z
m2972 -10 c13 -5 43 -15 68 -22 178 -50 362 -210 447 -389 65 -136 75 -185 70
-335 -5 -138 -14 -202 -28 -211 -5 -3 -9 -13 -9 -23 0 -10 -21 -59 -46 -109
-65 -126 -194 -256 -301 -303 -18 -8 -33 -17 -33 -21 0 -5 -7 -8 -15 -8 -8 0
-23 -4 -33 -9 -73 -37 -106 -43 -257 -48 -81 -3 -145 0 -170 7 -22 6 -58 17
-80 23 -59 17 -154 66 -205 106 -65 51 -170 161 -170 177 0 8 -4 14 -9 14 -5
0 -14 14 -21 30 -7 17 -16 30 -21 30 -5 0 -9 7 -9 15 0 8 -4 23 -9 33 -48 94
-65 191 -58 339 5 135 22 205 74 307 70 138 211 275 353 343 103 50 158 62
302 62 75 1 147 -3 160 -8z m-5336 -513 c18 -6 37 -21 42 -32 63 -139 116
-203 201 -244 64 -30 104 -32 556 -22 l230 5 6 -75 c10 -107 20 -170 30 -176
5 -3 9 -16 9 -29 0 -13 5 -27 10 -30 6 -3 10 -14 10 -24 0 -10 6 -31 14 -47 8
-16 22 -47 32 -69 10 -22 29 -58 43 -80 14 -22 31 -47 36 -56 48 -77 81 -116
169 -205 121 -120 188 -168 336 -240 104 -50 152 -70 190 -77 14 -3 57 -13 95
-22 88 -22 373 -25 455 -6 150 35 235 63 320 104 76 37 164 89 168 100 2 4 8
7 14 7 10 0 155 116 193 155 11 11 36 40 55 65 19 25 37 47 40 50 31 29 122
190 151 268 16 41 31 77 40 94 5 10 9 28 9 41 0 13 4 27 9 33 5 5 12 30 15 57
3 26 9 67 12 92 l6 45 228 0 228 0 5 -62 c7 -91 25 -176 47 -233 5 -11 16 -40
25 -65 50 -135 152 -289 264 -400 87 -86 99 -96 161 -140 19 -13 37 -27 40
-30 6 -6 70 -41 140 -76 82 -41 137 -62 215 -82 22 -6 63 -17 90 -24 33 -8
113 -13 230 -13 155 0 194 4 280 24 55 13 104 28 110 33 5 4 16 8 26 8 29 0
256 120 310 163 15 12 56 46 92 75 90 73 215 228 270 337 86 171 132 306 141
417 2 32 7 62 11 68 8 13 204 13 376 -1 144 -11 292 -1 378 28 107 36 215 153
255 276 5 17 13 18 73 12 83 -9 107 -21 160 -78 97 -105 145 -281 124 -452 -6
-49 -11 -116 -11 -149 0 -60 -14 -160 -32 -231 -40 -162 -47 -181 -98 -290
-45 -94 -99 -172 -150 -219 -40 -36 -135 -86 -163 -86 -7 0 -37 25 -67 55 -72
73 -117 96 -205 102 -57 5 -80 2 -116 -14 -86 -38 -139 -102 -139 -166 0 -17
-4 -44 -9 -61 -5 -17 -15 -51 -21 -76 -7 -25 -16 -54 -20 -65 -4 -11 -13 -36
-20 -55 -7 -19 -16 -44 -20 -55 -5 -11 -17 -45 -28 -75 -48 -133 -201 -441
-285 -572 -21 -31 -37 -61 -37 -67 0 -5 -4 -11 -8 -13 -4 -1 -20 -24 -35 -50
-15 -26 -33 -53 -40 -60 -7 -7 -16 -20 -20 -28 -4 -8 -20 -31 -35 -51 -123
-163 -153 -201 -197 -254 -27 -33 -113 -124 -190 -203 -127 -130 -191 -189
-318 -290 -48 -38 -242 -168 -308 -206 -45 -26 -298 -152 -334 -166 -92 -37
-240 -88 -345 -119 -41 -12 -89 -27 -106 -32 -17 -5 -44 -9 -60 -9 -17 0 -34
-4 -39 -9 -6 -5 -30 -12 -55 -15 -25 -3 -76 -10 -115 -16 -269 -41 -682 -33
-942 19 -117 24 -159 32 -191 38 -18 3 -35 9 -38 14 -3 5 -15 9 -26 9 -20 0
-61 11 -113 30 -11 4 -74 25 -140 46 -66 20 -127 41 -135 45 -8 4 -26 11 -40
17 -92 36 -239 108 -339 164 -46 27 -85 48 -87 48 -13 0 -211 129 -299 196
-166 124 -478 450 -585 609 -8 12 -40 58 -70 101 -63 91 -148 226 -170 269 -8
17 -17 32 -20 35 -5 5 -35 58 -72 130 -13 25 -26 47 -29 50 -7 6 -58 115 -94
200 -40 94 -56 131 -70 165 -7 17 -19 48 -26 70 -7 22 -16 45 -19 50 -4 6 -12
30 -19 55 -7 25 -17 54 -21 65 -8 20 -16 51 -27 110 -12 65 -118 142 -210 153
-50 5 -126 -13 -165 -40 -14 -10 -29 -18 -34 -18 -4 0 -25 -18 -46 -40 -22
-22 -43 -40 -48 -40 -5 0 -37 15 -71 32 -74 38 -201 160 -238 228 -55 103 -74
147 -101 231 -20 62 -27 97 -51 229 -24 133 -26 408 -4 520 22 113 113 241
200 280 47 22 143 26 191 8z m5344 -4321 c0 -18 -4 -37 -9 -42 -5 -6 -12 -28
-15 -50 -8 -59 -24 -153 -35 -215 -12 -64 -38 -239 -51 -355 -6 -44 -14 -111
-20 -150 -5 -38 -13 -95 -17 -125 -7 -50 -12 -57 -58 -93 -57 -44 -252 -177
-259 -177 -3 0 -26 -13 -51 -29 -40 -25 -84 -46 -270 -126 -16 -8 -48 -19 -70
-26 -22 -7 -44 -17 -49 -21 -6 -4 -20 -8 -32 -8 -13 0 -26 -4 -29 -10 -3 -5
-19 -10 -35 -10 -16 0 -31 -4 -34 -9 -3 -5 -23 -11 -43 -14 -21 -3 -60 -11
-88 -17 -216 -48 -587 -58 -800 -20 -33 6 -78 13 -100 16 -22 4 -44 10 -49 15
-6 5 -25 9 -42 9 -18 0 -36 5 -39 10 -3 6 -19 10 -35 10 -16 0 -32 5 -35 10
-3 6 -17 10 -31 10 -13 0 -32 4 -42 9 -9 5 -30 14 -47 21 -16 7 -38 16 -47 21
-10 5 -23 9 -29 9 -44 0 -464 244 -511 297 -10 11 -18 46 -22 88 -7 85 -25
219 -56 413 -6 34 -14 88 -19 120 -5 31 -14 86 -21 122 -6 36 -15 85 -20 110
-21 117 -29 157 -35 181 -9 37 3 40 55 17 25 -11 54 -23 65 -28 11 -4 32 -12
48 -19 51 -21 72 -29 107 -41 42 -15 79 -29 102 -41 10 -5 27 -9 37 -9 11 0
23 -4 26 -10 3 -5 17 -10 30 -10 13 0 26 -4 29 -9 3 -5 18 -11 33 -14 16 -3
46 -10 68 -16 22 -6 72 -18 110 -27 39 -9 88 -20 110 -26 205 -48 554 -91 740
-91 190 0 559 42 725 83 188 47 248 63 262 71 10 5 25 9 33 9 8 0 23 4 33 9 9
5 35 14 57 20 22 7 50 17 63 22 80 33 118 49 147 59 53 19 202 85 225 100 29
17 40 11 40 -23z m-3648 -307 c29 -143 50 -279 79 -515 21 -174 27 -221 42
-360 9 -77 18 -153 21 -170 3 -16 10 -66 16 -110 21 -156 33 -221 48 -265 8
-25 19 -64 23 -87 5 -24 14 -64 20 -90 6 -27 13 -75 15 -108 2 -33 9 -97 16
-142 13 -94 6 -109 -59 -140 -31 -14 -33 -19 -33 -65 0 -59 -35 -113 -78 -121
-15 -3 -47 -11 -72 -18 -25 -6 -94 -15 -155 -19 -60 -4 -132 -13 -160 -19 -27
-7 -70 -16 -95 -21 -25 -5 -65 -14 -90 -20 -25 -6 -65 -15 -90 -20 -25 -5 -65
-14 -90 -20 -117 -29 -255 -47 -263 -33 -3 5 1 58 9 118 8 61 19 148 25 195 6
47 15 108 19 135 14 83 30 177 40 233 6 28 14 76 19 105 6 28 15 73 20 100 26
117 30 134 40 172 6 22 14 58 20 80 5 22 14 56 20 75 5 19 13 46 17 60 10 39
114 342 123 365 61 137 169 343 230 435 41 63 77 117 81 120 3 3 16 19 28 35
13 17 60 69 105 116 91 96 89 96 109 -1z m4249 -61 c11 -9 19 -21 19 -26 0 -5
8 -18 18 -29 28 -31 130 -226 182 -349 4 -11 17 -41 29 -67 12 -26 21 -52 21
-58 0 -6 4 -18 9 -28 5 -9 14 -29 20 -44 6 -16 15 -38 20 -50 21 -51 84 -250
117 -373 9 -33 20 -76 26 -95 5 -19 12 -46 14 -60 3 -14 9 -34 14 -45 9 -20
17 -56 26 -110 3 -16 9 -39 14 -50 8 -19 11 -30 25 -115 4 -19 10 -44 15 -55
5 -11 11 -36 14 -55 3 -19 10 -57 16 -85 14 -64 28 -135 40 -205 6 -30 14 -80
20 -110 5 -30 13 -79 16 -109 l7 -54 -69 8 c-38 5 -224 9 -414 9 -317 0 -383
-3 -576 -30 -23 -3 -44 -2 -47 3 -5 8 5 95 24 208 5 33 16 118 24 189 7 70 18
149 24 175 5 25 12 84 15 131 6 88 25 193 46 245 7 18 9 49 5 79 -3 27 -2 70
4 95 6 25 15 73 22 106 6 33 15 69 19 80 5 11 11 36 15 55 3 19 10 60 16 90 6
30 14 89 19 130 5 41 14 104 20 140 6 36 15 97 20 135 5 39 14 93 20 120 5 28
14 73 19 100 15 78 21 107 33 152 l10 42 26 -37 c13 -20 33 -44 43 -53z
m-5431 -788 c0 -6 -4 -12 -9 -15 -5 -3 -11 -16 -14 -28 -3 -13 -10 -39 -15
-58 -43 -152 -72 -280 -122 -535 -29 -149 -54 -338 -71 -535 -6 -63 -14 -162
-20 -220 -5 -58 -12 -196 -15 -307 l-6 -201 31 -66 c37 -76 89 -125 154 -144
51 -15 182 -11 262 8 28 6 88 15 135 20 159 17 289 54 343 99 17 14 22 14 49
-2 33 -19 143 -24 153 -7 3 6 17 10 31 10 13 0 55 15 92 34 61 31 80 35 204
46 87 7 150 17 170 28 18 9 56 19 83 23 28 4 69 11 92 14 32 6 44 4 48 -6 5
-14 28 -287 46 -544 22 -317 29 -405 39 -515 15 -161 36 -494 59 -910 6 -102
13 -199 16 -215 6 -29 3 -32 -86 -90 -51 -33 -98 -62 -103 -64 -6 -2 -64 -40
-129 -83 -65 -43 -121 -78 -124 -78 -3 0 -25 -13 -49 -30 -112 -75 -59 -68
-729 -100 -262 -13 -641 -38 -895 -59 -63 -6 -173 -15 -245 -20 -143 -11 -305
-26 -435 -40 -47 -5 -87 -7 -89 -6 -1 2 2 41 8 87 6 46 15 144 21 218 6 74 15
187 21 250 23 249 30 330 39 450 5 69 14 168 20 220 6 52 15 140 20 195 13
133 27 257 38 330 18 116 -2 190 -72 259 -114 114 -258 115 -369 3 -69 -70
-72 -80 -92 -322 -8 -99 -20 -220 -25 -270 -6 -49 -15 -160 -20 -245 -9 -149
-15 -203 -41 -390 -7 -47 -13 -170 -15 -275 l-2 -190 -98 1 c-55 1 -178 7
-274 13 -311 21 -664 32 -1158 37 l-484 5 5 42 c3 23 10 62 15 87 29 130 52
247 59 295 3 22 9 44 14 50 5 5 9 26 9 46 0 21 4 40 9 43 5 3 11 23 14 43 3
21 10 59 16 86 6 26 16 67 21 92 6 25 14 64 19 88 6 23 14 60 19 82 5 22 22
99 37 170 15 72 30 146 35 165 19 80 32 137 40 175 5 22 14 60 20 85 6 25 15
64 21 88 5 23 14 62 19 87 6 25 14 64 19 88 6 23 15 62 21 87 6 25 14 60 17
78 3 18 9 35 14 38 5 3 9 16 9 30 0 13 4 32 9 42 5 9 15 37 22 62 32 113 118
309 171 387 15 23 28 45 28 50 0 4 18 32 40 61 22 29 40 55 40 58 0 12 87 110
190 214 129 130 168 162 387 310 73 50 137 90 143 90 5 0 10 5 10 10 0 6 4 10
10 10 5 0 32 13 60 30 100 59 450 239 550 282 19 9 56 25 82 37 26 11 50 21
52 21 3 0 39 16 80 35 42 19 78 35 81 35 6 0 91 37 117 51 10 5 25 9 33 9 8 0
15 5 15 10 0 6 7 10 15 10 8 0 23 4 33 9 9 5 28 13 42 19 14 5 46 19 72 31 26
12 52 21 58 21 6 0 18 4 28 9 18 10 182 71 247 92 22 7 45 16 50 19 6 4 30 12
55 20 25 7 49 17 55 22 5 4 19 8 31 8 13 0 25 4 28 8 3 4 28 14 56 22 28 8 53
18 56 22 3 4 14 8 25 8 10 0 27 4 37 9 9 5 37 14 62 21 25 7 54 16 65 20 27
12 45 12 45 1z m4560 -625 c0 -53 -4 -98 -10 -101 -5 -3 -10 -19 -10 -34 0
-15 -4 -31 -9 -36 -5 -6 -12 -55 -15 -110 -9 -172 -17 -250 -27 -259 -5 -6 -9
-71 -9 -146 0 -111 -4 -145 -20 -190 -15 -42 -21 -83 -22 -170 -1 -81 -7 -130
-19 -165 -13 -37 -19 -97 -24 -230 -9 -243 -12 -295 -19 -302 -3 -3 -45 -10
-93 -14 -268 -27 -318 -33 -503 -58 -247 -34 -299 -49 -347 -100 -27 -28 -36
-42 -61 -101 -20 -46 -25 -104 -29 -342 l-4 -237 -32 -19 c-28 -17 -70 -40
-182 -101 -16 -9 -32 -18 -35 -21 -3 -3 -18 -12 -35 -21 -36 -17 -265 -140
-315 -168 -19 -11 -60 -33 -90 -48 -30 -15 -57 -30 -60 -33 -3 -3 -18 -12 -35
-20 -27 -13 -58 -31 -165 -93 -19 -11 -50 -29 -69 -38 -18 -10 -41 -25 -51
-34 -16 -14 -17 -11 -24 62 -5 43 -12 197 -17 343 -5 146 -14 319 -20 385 -5
66 -14 228 -19 360 -12 309 -25 435 -61 600 -18 81 -22 156 -10 168 17 17 13
97 -9 157 -11 30 -20 67 -20 82 0 15 -8 53 -17 85 -17 60 -18 87 -7 186 5 50
2 65 -21 113 -21 42 -25 63 -20 87 13 56 10 121 -7 157 -9 19 -19 73 -22 120
-4 47 -10 139 -14 205 -5 66 -7 122 -5 124 1 2 11 -3 21 -12 10 -10 21 -17 25
-17 3 0 29 -13 57 -30 28 -16 57 -30 65 -30 8 0 15 -4 15 -10 0 -5 9 -10 20
-10 11 0 20 -4 20 -10 0 -5 6 -10 13 -10 7 0 31 -9 53 -19 47 -23 225 -83 311
-105 128 -33 200 -45 443 -72 210 -23 416 -8 743 52 76 15 150 30 165 35 15 5
56 18 92 30 100 31 124 42 270 113 153 75 220 112 239 131 8 8 19 15 23 15 4
0 8 -42 8 -94z m2536 -2353 c30 -913 -14 -3419 -63 -3578 -10 -31 -40 -51
-100 -67 -18 -4 -50 -13 -70 -18 -52 -14 -220 -40 -328 -51 -270 -27 -468 -33
-1110 -33 -760 -1 -916 7 -1265 59 -58 9 -124 18 -148 22 -23 3 -45 10 -48 14
-3 5 -15 9 -27 9 -12 0 -36 9 -53 19 l-31 19 -8 273 c-20 658 -4 3298 20 3360
7 20 52 26 280 39 88 5 223 14 300 20 77 6 203 15 280 20 289 19 444 30 585
40 80 6 213 15 295 20 83 6 211 14 285 19 172 12 403 27 645 41 105 6 220 15
257 21 37 5 100 10 140 10 40 1 87 5 103 9 17 4 35 8 41 9 7 1 14 -87 20 -276z
m704 -394 c52 -5 124 -14 160 -19 36 -5 95 -13 132 -18 78 -11 98 -23 98 -63
0 -15 5 -31 10 -34 6 -3 10 -23 10 -44 0 -20 4 -41 9 -46 5 -6 12 -30 15 -55
3 -25 10 -81 16 -125 37 -282 54 -539 54 -855 0 -292 -14 -649 -26 -656 -4 -3
-8 -12 -8 -20 0 -40 -109 -167 -207 -240 -27 -21 -176 -98 -220 -115 -35 -14
-65 -25 -96 -38 -15 -6 -38 -11 -50 -11 -13 0 -28 -5 -34 -11 -6 -6 -23 -9
-38 -7 l-28 3 2 85 c1 47 6 150 11 230 5 80 10 166 10 191 l0 47 65 1 c116 2
181 57 213 181 26 101 48 339 58 648 9 259 -10 366 -78 429 -38 35 -135 75
-199 80 l-59 6 -1 166 c0 91 -4 193 -8 226 -10 76 -1 89 54 81 22 -4 83 -11
135 -17z m-4463 -686 c-4 -120 -7 -257 -7 -305 l0 -88 -45 0 c-25 0 -53 -4
-63 -9 -70 -34 -92 -48 -125 -80 -44 -41 -62 -72 -83 -140 -26 -85 -16 -166
31 -267 31 -66 135 -132 224 -143 l44 -6 -2 -205 c-2 -195 -6 -233 -20 -213
-16 23 -71 51 -123 62 -59 13 -107 5 -168 -26 -34 -17 -120 -103 -120 -120 0
-7 -4 -13 -10 -13 -5 0 -10 -9 -10 -19 0 -11 -4 -23 -10 -26 -14 -8 -13 -127
1 -162 33 -81 58 -119 105 -159 28 -24 58 -44 66 -44 8 0 19 -5 26 -12 18 -18
171 -14 207 6 42 22 45 21 45 -23 0 -47 -24 -79 -107 -142 -32 -24 -60 -47
-63 -50 -30 -38 -403 -239 -443 -239 -9 0 -19 -4 -22 -10 -3 -5 -17 -10 -30
-10 -13 0 -27 -4 -30 -10 -3 -5 -15 -10 -26 -10 -10 0 -27 -4 -37 -9 -30 -15
-88 -31 -113 -31 -14 0 -29 -4 -34 -9 -22 -21 -321 -40 -479 -30 -162 11 -214
18 -421 60 -313 63 -476 67 -830 19 -144 -19 -222 -30 -282 -40 -143 -23 -181
-30 -233 -39 -30 -6 -82 -15 -115 -21 -33 -5 -87 -15 -120 -20 -33 -6 -112
-18 -175 -26 -63 -9 -146 -20 -185 -25 -144 -20 -400 -46 -580 -60 -71 -6
-383 -12 -693 -15 l-562 -5 -36 78 c-55 119 -50 103 -75 228 -6 28 -13 104
-16 170 -6 135 4 212 47 375 22 83 67 182 125 275 38 61 190 225 209 225 4 0
26 13 49 28 78 52 196 101 297 123 25 6 64 14 88 20 23 5 63 14 90 20 89 19
327 59 472 79 36 4 99 13 140 20 160 24 462 56 755 80 119 10 595 36 930 51
214 9 374 22 433 35 35 7 177 77 270 132 29 18 57 32 62 32 6 0 10 5 10 10 0
6 4 10 9 10 5 0 40 17 78 39 150 84 171 96 238 131 39 20 87 46 108 58 74 44
104 59 197 108 52 27 97 51 100 54 3 3 34 20 70 39 36 18 97 50 135 71 199
105 336 177 390 204 33 17 62 33 65 36 9 9 52 32 190 103 74 38 142 76 150 83
8 8 21 14 29 14 12 0 13 -31 8 -217z m-6057 -692 c361 -11 710 -31 710 -40 0
-3 -33 -21 -73 -40 -39 -19 -91 -47 -114 -63 -23 -15 -45 -28 -48 -28 -17 0
-169 -123 -240 -195 -85 -86 -119 -127 -175 -215 -40 -61 -140 -261 -140 -279
0 -6 -4 -19 -9 -29 -27 -53 -57 -158 -80 -282 -31 -166 -36 -227 -35 -420 2
-200 4 -219 42 -372 5 -20 8 -38 7 -40 -6 -5 -417 11 -535 21 -182 16 -243 32
-389 104 -66 33 -103 60 -171 127 -85 84 -104 111 -156 220 -33 69 -41 89 -49
120 -3 14 -12 48 -19 75 -29 107 -40 268 -27 373 26 203 61 313 149 464 30 53
132 185 160 208 9 8 42 35 72 60 30 25 57 47 60 50 3 3 22 18 43 33 26 20 37
36 37 55 1 36 15 51 75 84 l50 28 260 -5 c143 -2 411 -9 595 -14z"/>
</g>
</svg>
