<?xml version="1.0" encoding="utf-8"?>
<svg xmlns="http://www.w3.org/2000/svg" height="512pt" version="1.1" viewBox="0 0 512 512" width="512pt">
<path d="M 0.00 0.00 L 512.00 0.00 L 512.00 512.00 L 0.00 512.00 L 0.00 0.00 Z" fill="transparent" opacity="1.00" stroke="transparent" stroke-width="0.25"/>
<path d="M 211.48 119.44 C 220.65 111.96 232.43 108.67 243.93 106.92 C 256.80 106.33 269.99 106.34 282.39 110.32 C 293.93 113.42 305.25 120.20 310.75 131.20 C 320.94 137.36 326.86 148.95 328.41 160.49 C 329.33 165.97 329.91 171.53 329.78 177.09 C 329.67 183.17 327.17 188.85 324.49 194.18 C 335.34 205.35 331.41 225.98 318.19 233.54 C 316.31 234.77 314.08 233.93 312.04 233.74 C 308.28 244.94 302.24 255.93 292.71 263.21 C 298.30 266.34 301.27 272.24 305.19 277.01 C 315.99 281.70 327.43 284.80 338.14 289.73 C 344.97 292.97 352.13 296.08 357.49 301.59 C 363.33 307.87 367.84 315.58 369.40 324.09 C 374.34 347.91 377.97 371.98 380.88 396.12 C 381.14 398.38 381.80 400.71 381.22 402.97 C 380.34 404.51 378.39 404.72 376.95 405.45 C 375.42 404.77 373.55 404.02 373.26 402.15 C 372.26 386.99 369.51 372.03 367.05 357.06 C 365.03 344.81 363.65 332.40 360.30 320.42 C 357.13 310.65 349.08 303.30 339.93 299.09 C 329.60 293.85 318.80 289.52 307.61 286.48 C 309.84 295.23 312.02 304.04 313.03 313.02 C 313.47 315.78 312.22 319.53 308.97 319.70 C 301.15 320.44 293.39 318.58 285.60 318.16 C 285.42 320.61 285.25 323.06 285.10 325.52 C 294.70 325.28 304.27 324.48 313.79 323.22 C 317.41 322.87 321.59 321.78 324.73 324.26 C 327.81 326.63 327.86 330.85 328.33 334.35 C 332.68 334.32 337.85 333.33 341.29 336.70 C 346.03 341.13 346.84 347.97 347.23 354.09 C 347.44 361.02 347.50 368.02 346.38 374.88 C 345.94 377.85 344.20 380.37 342.50 382.77 C 342.33 388.20 342.45 393.64 342.38 399.09 C 342.52 400.62 341.93 402.02 341.04 403.23 C 338.77 405.77 335.49 403.56 333.57 401.74 C 334.26 396.89 334.37 391.99 334.46 387.11 C 332.14 387.30 329.82 387.51 327.51 387.71 C 326.42 391.91 325.55 396.15 324.65 400.39 C 323.57 401.00 322.50 401.60 321.42 402.20 C 315.90 404.25 309.88 404.44 304.05 404.59 C 291.59 404.73 278.96 405.07 266.73 402.29 C 263.34 401.27 260.90 398.54 259.87 395.21 C 254.41 401.93 245.04 402.60 237.01 402.46 C 231.59 402.72 226.40 399.77 220.97 400.82 C 200.72 405.60 179.72 404.77 159.09 404.39 C 150.92 404.95 141.38 403.94 135.90 397.08 C 129.44 390.05 129.64 379.44 132.83 370.97 C 134.51 367.66 136.45 364.44 139.22 361.93 C 140.76 351.16 143.00 340.51 145.45 329.92 C 146.82 324.47 147.93 318.87 150.56 313.86 C 153.81 307.40 158.97 301.93 165.18 298.23 C 179.25 289.54 195.00 284.21 210.36 278.34 C 213.34 272.78 216.75 267.33 221.62 263.22 C 212.52 255.39 205.19 245.13 202.03 233.47 C 199.83 233.77 197.48 234.66 195.43 233.33 C 182.88 225.73 178.79 205.86 189.06 194.82 C 188.42 193.13 187.76 191.44 187.17 189.73 L 186.81 189.12 C 184.53 180.98 184.84 172.35 185.99 164.05 C 187.88 153.45 190.58 142.16 198.18 134.10 C 202.43 129.06 206.24 123.55 211.48 119.44 Z" fill="#0c1619" opacity="1.00" stroke="#0c1619" stroke-width="0.25"/>
<path d="M 221.78 121.98 C 232.61 116.61 244.83 114.09 256.91 114.77 C 268.24 115.18 279.81 116.78 290.16 121.62 C 293.49 123.14 296.51 125.37 298.84 128.20 C 300.98 130.81 302.01 134.18 304.48 136.54 C 307.82 139.86 311.51 142.89 314.24 146.76 C 318.91 152.75 320.26 160.46 321.36 167.77 C 321.95 173.00 322.37 178.50 320.49 183.52 C 319.23 186.92 318.44 190.53 316.48 193.62 C 315.84 178.67 308.98 165.03 301.66 152.34 C 299.22 149.95 296.65 146.78 293.11 146.28 C 285.30 153.31 275.31 157.50 265.08 159.61 C 254.23 162.18 242.98 161.79 231.92 161.48 C 226.35 161.37 220.98 159.60 216.15 156.89 C 206.96 166.79 202.31 180.38 201.45 193.70 C 199.79 193.12 198.14 192.52 196.49 191.91 C 190.28 175.71 192.90 156.90 202.33 142.48 C 207.46 134.56 213.57 126.88 221.78 121.98 Z" fill="#cbaf9a" opacity="1.00" stroke="#cbaf9a" stroke-width="0.25"/>
<path d="M 261.02 168.96 C 272.12 166.12 283.85 164.00 293.23 156.95 C 299.89 164.98 304.22 174.98 306.70 185.04 C 306.44 188.50 306.28 191.96 306.37 195.43 C 303.62 195.55 300.87 195.60 298.12 195.59 L 298.02 195.59 C 292.92 183.87 275.06 181.09 266.73 190.72 C 264.89 192.59 263.72 194.97 262.55 197.28 C 258.98 197.11 255.40 197.08 251.83 197.14 C 248.19 185.11 231.38 181.60 221.98 188.97 C 219.14 191.27 217.10 194.35 215.57 197.64 C 213.54 197.60 211.50 197.54 209.47 197.47 C 208.49 186.70 213.83 176.67 218.89 167.54 C 225.41 169.66 232.29 169.83 239.07 170.25 C 246.40 170.49 253.84 170.68 261.02 168.96 Z" fill="#f4cb97" opacity="1.00" stroke="#f4cb97" stroke-width="0.25"/>
<path d="M 306.37 195.43 C 306.28 191.96 306.44 188.50 306.70 185.04 C 307.96 188.94 308.41 193.04 308.41 197.12 C 305.24 197.24 302.08 197.61 298.92 197.46 C 298.72 196.99 298.32 196.05 298.12 195.59 C 300.87 195.60 303.62 195.55 306.37 195.43 Z" fill="#edd4b2" opacity="1.00" stroke="#edd4b2" stroke-width="0.25"/>
<path d="M 229.38 193.56 C 236.17 190.32 245.32 195.51 245.66 203.13 C 247.12 210.68 239.36 218.12 231.87 216.57 C 225.89 215.38 221.03 209.01 222.43 202.86 C 222.82 198.78 225.70 195.22 229.38 193.56 Z" fill="#f9d8ae" opacity="1.00" stroke="#f9d8ae" stroke-width="0.25"/>
<path d="M 277.18 193.09 C 283.97 190.73 292.04 195.91 292.55 203.11 C 293.41 207.75 290.76 212.30 287.09 214.98 C 282.33 218.00 275.12 217.05 271.82 212.30 C 266.86 206.22 269.22 195.31 277.18 193.09 Z" fill="#fad9ae" opacity="1.00" stroke="#fad9ae" stroke-width="0.25"/>
<path d="M 193.27 202.16 C 194.05 199.77 197.24 199.52 198.99 200.93 C 200.00 202.31 200.31 204.06 200.92 205.63 C 205.35 206.29 209.82 206.49 214.29 206.41 C 215.32 210.90 216.70 215.59 220.35 218.70 C 226.49 225.49 237.51 225.99 244.84 220.86 C 249.94 217.76 252.48 212.02 253.61 206.38 C 256.20 206.33 258.79 206.25 261.38 206.16 C 262.29 211.22 264.29 216.30 268.41 219.60 C 275.02 225.79 286.24 225.93 293.04 219.97 C 297.12 216.62 298.94 211.46 300.44 206.58 C 304.39 206.74 308.33 206.43 312.26 206.01 L 313.06 205.93 C 315.28 205.76 317.43 205.13 319.58 204.53 C 322.08 209.55 320.92 215.59 318.25 220.29 C 317.21 222.39 314.99 223.28 312.92 224.01 C 310.69 222.52 307.17 222.17 305.91 225.02 C 303.95 232.11 301.74 239.33 297.34 245.36 C 290.90 255.43 280.25 262.34 268.84 265.49 C 253.63 269.20 237.05 264.70 225.00 254.90 C 218.60 249.34 214.02 242.03 210.30 234.48 C 208.73 231.32 207.94 227.82 206.14 224.77 C 203.90 222.12 200.45 225.21 197.84 225.74 C 191.40 219.94 190.02 209.93 193.27 202.16 Z" fill="#f6cc99" opacity="1.00" stroke="#f6cc99" stroke-width="0.25"/>
<path d="M 313.06 205.93 C 314.17 204.12 315.27 202.29 316.24 200.39 C 317.83 200.74 319.88 200.76 320.66 202.49 C 324.63 210.16 322.17 220.75 315.07 225.75 C 314.35 225.17 313.63 224.59 312.92 224.01 C 314.99 223.28 317.21 222.39 318.25 220.29 C 320.92 215.59 322.08 209.55 319.58 204.53 C 317.43 205.13 315.28 205.76 313.06 205.93 Z" fill="#f3d8ac" opacity="1.00" stroke="#f3d8ac" stroke-width="0.25"/>
<path d="M 255.01 275.53 C 265.19 276.00 275.77 273.92 284.44 268.40 C 283.70 273.32 282.85 278.21 282.19 283.14 C 281.08 287.34 276.88 289.56 273.27 291.31 C 261.34 296.19 247.36 294.35 236.41 287.83 C 235.11 281.74 234.11 275.58 232.55 269.55 C 239.71 272.54 247.17 275.24 255.01 275.53 Z" fill="#f5cc99" opacity="1.00" stroke="#f5cc99" stroke-width="0.25"/>
<path d="M 210.06 313.26 C 211.22 298.78 216.28 284.70 224.85 272.96 C 226.84 284.84 229.02 296.70 230.46 308.67 C 223.66 310.21 216.76 311.32 210.06 313.26 Z" fill="#aa9d94" opacity="1.00" stroke="#aa9d94" stroke-width="0.25"/>
<path d="M 286.17 308.56 C 287.74 297.20 289.67 285.86 292.32 274.70 C 299.40 285.75 302.26 298.76 304.72 311.47 C 298.59 310.15 292.28 310.00 286.17 308.56 Z" fill="#a99e93" opacity="1.00" stroke="#a99e93" stroke-width="0.25"/>
<path d="M 307.61 286.48 C 318.80 289.52 329.60 293.85 339.93 299.09 C 349.08 303.30 357.13 310.65 360.30 320.42 C 363.65 332.40 365.03 344.81 367.05 357.06 C 369.51 372.03 372.26 386.99 373.26 402.15 C 364.17 402.36 355.09 402.18 346.01 402.22 C 344.29 402.16 342.64 402.66 341.04 403.23 C 341.93 402.02 342.52 400.62 342.38 399.09 C 342.45 393.64 342.33 388.20 342.50 382.77 C 344.20 380.37 345.94 377.85 346.38 374.88 C 347.50 368.02 347.44 361.02 347.23 354.09 C 346.84 347.97 346.03 341.13 341.29 336.70 C 337.85 333.33 332.68 334.32 328.33 334.35 C 327.86 330.85 327.81 326.63 324.73 324.26 C 321.59 321.78 317.41 322.87 313.79 323.22 C 304.27 324.48 294.70 325.28 285.10 325.52 C 285.25 323.06 285.42 320.61 285.60 318.16 C 293.39 318.58 301.15 320.44 308.97 319.70 C 312.22 319.53 313.47 315.78 313.03 313.02 C 312.02 304.04 309.84 295.23 307.61 286.48 Z" fill="#a99c93" opacity="1.00" stroke="#a99c93" stroke-width="0.25"/>
<path d="M 181.47 298.32 C 189.72 294.43 198.04 290.50 206.84 288.02 C 204.00 296.42 202.67 305.24 201.70 314.02 C 201.62 316.73 201.24 320.49 204.23 321.83 C 205.97 322.98 208.06 322.09 209.93 321.84 C 217.17 320.26 224.50 319.08 231.77 317.64 C 232.70 329.90 233.49 342.16 233.53 354.46 C 229.93 356.73 226.44 359.70 222.05 360.17 C 215.73 361.09 209.34 360.63 203.00 360.43 C 197.66 360.12 192.55 361.96 187.33 362.71 C 188.51 353.80 189.80 344.91 190.44 335.94 C 190.68 334.01 190.04 332.17 189.45 330.37 C 187.32 330.46 184.18 329.63 183.36 332.32 C 180.86 340.38 181.26 348.99 180.33 357.31 C 169.78 355.79 158.96 355.03 148.40 356.93 C 150.18 345.09 152.63 333.34 156.05 321.87 C 159.08 309.63 171.06 303.41 181.47 298.32 Z" fill="#aa9d94" opacity="1.00" stroke="#aa9d94" stroke-width="0.25"/>
<path d="M 237.48 297.45 C 241.34 299.78 245.73 301.02 250.14 301.87 C 254.80 302.77 259.58 302.80 264.30 302.35 C 260.20 303.22 256.02 303.46 251.85 303.57 C 260.24 304.40 268.72 303.26 276.69 300.56 C 277.15 302.96 277.56 305.36 277.85 307.79 C 277.42 314.16 276.76 320.56 275.45 326.81 C 270.48 326.57 265.13 327.24 260.74 329.67 C 257.96 332.83 259.20 337.55 259.23 341.39 C 252.98 343.16 247.68 347.08 241.86 349.84 C 241.65 340.14 240.93 330.43 241.74 320.74 L 240.69 320.06 C 239.11 314.72 239.02 309.13 238.29 303.65 C 238.03 301.58 237.74 299.51 237.48 297.45 Z" fill="#f67a41" opacity="1.00" stroke="#f67a41" stroke-width="0.25"/>
<path d="M 275.04 299.38 C 276.51 298.78 277.96 298.12 279.42 297.50 C 278.98 300.94 278.58 304.39 277.85 307.79 C 277.56 305.36 277.15 302.96 276.69 300.56 C 268.72 303.26 260.24 304.40 251.85 303.57 C 256.02 303.46 260.20 303.22 264.30 302.35 C 267.95 301.67 271.58 300.76 275.04 299.38 Z" fill="#c87954" opacity="1.00" stroke="#c87954" stroke-width="0.25"/>
<path d="M 261.02 301.00 C 265.75 300.92 270.27 298.97 275.04 299.38 C 271.58 300.76 267.95 301.67 264.30 302.35 C 259.58 302.80 254.80 302.77 250.14 301.87 C 253.70 300.99 257.38 301.09 261.02 301.00 Z" fill="#210d06" opacity="1.00" stroke="#210d06" stroke-width="0.25"/>
<path d="M 238.29 303.65 C 239.02 309.13 239.11 314.72 240.69 320.06 C 241.47 327.33 240.29 334.71 240.49 342.03 C 240.47 335.67 239.76 329.34 239.60 322.99 C 239.53 316.50 236.46 310.15 238.29 303.65 Z" fill="#371a0b" opacity="1.00" stroke="#371a0b" stroke-width="0.25"/>
<path d="M 260.74 329.67 C 265.13 327.24 270.48 326.57 275.45 326.81 L 276.47 326.96 C 271.95 328.76 266.79 328.21 262.42 330.43 C 259.14 333.30 261.72 338.27 259.23 341.39 C 259.20 337.55 257.96 332.83 260.74 329.67 Z" fill="#35190b" opacity="1.00" stroke="#35190b" stroke-width="0.25"/>
<path d="M 297.05 333.83 C 304.62 333.42 312.14 332.41 319.70 331.77 C 320.37 352.77 321.60 374.00 317.44 394.75 C 312.10 396.17 306.54 396.31 301.05 396.49 C 289.91 396.69 278.67 396.77 267.68 394.67 C 267.93 374.95 267.44 355.22 267.22 335.50 C 277.14 334.56 287.12 334.71 297.05 333.83 Z" fill="#f8d7ac" opacity="1.00" stroke="#f8d7ac" stroke-width="0.25"/>
<path d="M 329.09 341.49 C 331.31 341.77 333.52 342.12 335.74 342.47 C 337.25 344.31 338.73 346.37 338.71 348.87 C 339.36 357.05 339.79 365.38 338.38 373.51 C 337.22 377.90 332.22 378.81 328.47 379.84 C 328.62 377.23 328.73 374.63 328.86 372.03 C 330.89 371.19 333.13 370.07 333.48 367.64 C 334.10 362.83 333.88 357.94 333.60 353.11 C 333.49 350.60 331.34 348.95 329.30 347.90 C 329.14 345.76 329.10 343.62 329.09 341.49 Z" fill="#f0c79c" opacity="1.00" stroke="#f0c79c" stroke-width="0.25"/>
<path d="M 234.11 364.21 C 242.22 358.97 250.64 354.20 259.42 350.17 C 259.68 353.39 259.82 356.63 259.91 359.87 C 256.57 359.50 254.57 361.99 253.55 364.84 C 254.07 369.62 259.32 371.73 259.79 376.51 C 257.20 375.91 254.46 375.75 252.24 377.46 C 252.21 379.35 252.25 381.24 252.43 383.14 C 254.33 384.50 256.11 386.02 257.71 387.73 C 252.72 391.78 246.68 395.24 240.03 394.79 C 234.74 395.01 229.93 392.62 224.90 391.49 C 219.78 391.50 215.00 393.61 209.99 394.37 C 196.57 396.57 182.91 396.93 169.34 396.23 C 167.60 389.48 167.83 381.31 172.95 376.03 C 176.61 372.29 182.24 372.82 186.99 371.93 C 192.16 371.49 196.71 368.13 202.01 368.63 C 212.73 369.34 224.76 370.68 234.11 364.21 Z" fill="#f5cb98" opacity="1.00" stroke="#f5cb98" stroke-width="0.25"/>
<path d="M 150.11 366.01 C 157.66 363.91 165.61 364.93 173.34 364.82 C 168.31 367.84 164.24 372.39 162.05 377.86 C 159.55 383.72 159.68 390.24 160.04 396.49 C 153.47 396.54 145.12 397.30 140.94 391.05 C 135.58 382.47 139.94 368.71 150.11 366.01 Z" fill="#a99c93" opacity="1.00" stroke="#a99c93" stroke-width="0.25"/>
<path d="M 327.51 387.71 C 329.82 387.51 332.14 387.30 334.46 387.11 C 334.37 391.99 334.26 396.89 333.57 401.74 C 329.51 401.57 325.44 401.61 321.42 402.20 C 322.50 401.60 323.57 401.00 324.65 400.39 C 325.55 396.15 326.42 391.91 327.51 387.71 Z" fill="#a79c93" opacity="1.00" stroke="#a79c93" stroke-width="0.25"/>
<path d="M 169.50 397.05 C 178.08 397.09 186.68 396.75 195.24 397.33 C 189.20 398.38 183.05 397.94 176.96 398.07 C 174.45 398.04 171.80 398.27 169.50 397.05 Z" fill="#070401" opacity="1.00" stroke="#070401" stroke-width="0.25"/>
</svg>